<svg xmlns="http://www.w3.org/2000/svg" xmlns:xlink="http://www.w3.org/1999/xlink" width="627" height="213" viewBox="0 0 627 213">
  <defs>
    <filter id="Rectangle_11" x="11" y="14" width="605" height="191" filterUnits="userSpaceOnUse">
      <feOffset dy="3" input="SourceAlpha"/>
      <feGaussianBlur stdDeviation="3" result="blur"/>
      <feFlood flood-opacity="0.161"/>
      <feComposite operator="in" in2="blur"/>
      <feComposite in="SourceGraphic"/>
    </filter>
    <clipPath id="clip-Fig1">
      <rect width="627" height="213"/>
    </clipPath>
  </defs>
  <g id="Fig1" clip-path="url(#clip-Fig1)">
    <rect width="627" height="213" fill="#fff"/>
    <g transform="matrix(1, 0, 0, 1, 0, 0)" filter="url(#Rectangle_11)">
      <g id="Rectangle_11-2" data-name="Rectangle 11" transform="translate(20 20)" fill="#fcfcfc" stroke="#cbcbcb" stroke-width="1">
        <rect width="587" height="173" rx="8" stroke="none"/>
        <rect x="0.5" y="0.5" width="586" height="172" rx="7.5" fill="none"/>
      </g>
    </g>
    <text id="טעמים_לבחירה" data-name="טעמים לבחירה" transform="translate(522 54)" fill="#555" font-size="24" font-family="Alef-Regular, Alef"><tspan x="-70.395" y="0">טעמים לבחירה</tspan></text>
    <g id="Rectangle_1" data-name="Rectangle 1" transform="translate(30 70)" fill="#fa83ac" stroke="rgba(82,0,0,0.17)" stroke-width="2">
      <path d="M6,0H81a0,0,0,0,1,0,0V113a0,0,0,0,1,0,0H6a6,6,0,0,1-6-6V6A6,6,0,0,1,6,0Z" stroke="none"/>
      <path d="M6,1H79a1,1,0,0,1,1,1V111a1,1,0,0,1-1,1H6a5,5,0,0,1-5-5V6A5,5,0,0,1,6,1Z" fill="none"/>
    </g>
    <g id="Rectangle_2" data-name="Rectangle 2" transform="translate(111 70)" fill="#e29bef" stroke="rgba(82,0,0,0.17)" stroke-width="2">
      <rect width="81" height="113" stroke="none"/>
      <rect x="1" y="1" width="79" height="111" fill="none"/>
    </g>
    <g id="Rectangle_4" data-name="Rectangle 4" transform="translate(273 70)" fill="#fff8e1" stroke="rgba(82,0,0,0.17)" stroke-width="2">
      <rect width="81" height="113" stroke="none"/>
      <rect x="1" y="1" width="79" height="111" fill="none"/>
    </g>
    <g id="Rectangle_6" data-name="Rectangle 6" transform="translate(354 70)" fill="#ffbefa" stroke="rgba(82,0,0,0.17)" stroke-width="2">
      <rect width="81" height="113" stroke="none"/>
      <rect x="1" y="1" width="79" height="111" fill="none"/>
    </g>
    <g id="Rectangle_12" data-name="Rectangle 12" transform="translate(435 70)" fill="#dbc1a3" stroke="rgba(82,0,0,0.17)" stroke-width="2">
      <rect width="81" height="113" stroke="none"/>
      <rect x="1" y="1" width="79" height="111" fill="none"/>
    </g>
    <g id="Rectangle_7" data-name="Rectangle 7" transform="translate(516 70)" fill="#ffee91" stroke="rgba(82,0,0,0.17)" stroke-width="2">
      <path d="M0,0H75a6,6,0,0,1,6,6V107a6,6,0,0,1-6,6H0a0,0,0,0,1,0,0V0A0,0,0,0,1,0,0Z" stroke="none"/>
      <path d="M2,1H75a5,5,0,0,1,5,5V107a5,5,0,0,1-5,5H2a1,1,0,0,1-1-1V2A1,1,0,0,1,2,1Z" fill="none"/>
    </g>
    <text id="מסטיק" transform="translate(394.5 106.5)" fill="#cb39bf" font-size="19" font-family="Assistant-SemiBold, Assistant" font-weight="600"><tspan x="-24.52" y="0">מסטיק</tspan></text>
    <text id="קפה" transform="translate(475.5 106.5)" fill="#8d6533" font-size="19" font-family="Assistant-SemiBold, Assistant" font-weight="600"><tspan x="-15.894" y="0">קפה</tspan></text>
    <text id="בננה" transform="translate(557 106)" fill="#8e6523" font-size="19" font-family="Assistant-SemiBold, Assistant" font-weight="600"><tspan x="-17.48" y="0">בננה</tspan></text>
    <text id="וניל" transform="translate(314 106)" fill="#af8752" font-size="19" font-family="Assistant-SemiBold, Assistant" font-weight="600"><tspan x="-12.73" y="0">וניל</tspan></text>
    <text id="ענבים" transform="translate(152 106)" fill="#9b38ac" font-size="19" font-family="Assistant-SemiBold, Assistant" font-weight="600"><tspan x="-21.698" y="0">ענבים</tspan></text>
    <text id="תות" transform="translate(71 106)" fill="#bc3765" font-size="19" font-family="Assistant-SemiBold, Assistant" font-weight="600"><tspan x="-14.022" y="0">תות</tspan></text>
    <g id="Rectangle_13" data-name="Rectangle 13" transform="translate(192 70)" fill="#dbc1a3" stroke="rgba(82,0,0,0.17)" stroke-width="2">
      <rect width="81" height="113" stroke="none"/>
      <rect x="1" y="1" width="79" height="111" fill="none"/>
    </g>
    <text id="קפה-2" data-name="קפה" transform="translate(232.5 106.5)" fill="#8d6533" font-size="19" font-family="Assistant-SemiBold, Assistant" font-weight="600"><tspan x="-15.894" y="0">קפה</tspan></text>
  </g>
</svg>
