<svg width="20" height="20" viewBox="0 0 20 20" fill="none" xmlns="http://www.w3.org/2000/svg">
<path d="M10 18.3333H15C15.442 18.3333 15.8659 18.1577 16.1785 17.8452C16.4911 17.5326 16.6667 17.1087 16.6667 16.6667V5.83333L12.5 1.66667H4.99999C4.55797 1.66667 4.13404 1.84226 3.82148 2.15482C3.50892 2.46738 3.33333 2.89131 3.33333 3.33333V5.83333" stroke="#FFADE4" stroke-width="1.5" stroke-linecap="round" stroke-linejoin="round"/>
<path d="M11.6667 1.66667V5C11.6667 5.44203 11.8423 5.86595 12.1548 6.17851C12.4674 6.49107 12.8913 6.66667 13.3333 6.66667H16.6667" stroke="#FFADE4" stroke-width="1.5" stroke-linecap="round" stroke-linejoin="round"/>
<path d="M4.16667 14.1667C4.49498 14.1667 4.82007 14.102 5.12338 13.9764C5.42669 13.8507 5.70229 13.6666 5.93444 13.4344C6.16659 13.2023 6.35073 12.9267 6.47637 12.6234C6.60201 12.3201 6.66667 11.995 6.66667 11.6667C6.66667 11.3384 6.60201 11.0133 6.47637 10.71C6.35073 10.4066 6.16659 10.131 5.93444 9.8989C5.70229 9.66675 5.42669 9.4826 5.12338 9.35697C4.82007 9.23133 4.49498 9.16666 4.16667 9.16666C3.50363 9.16666 2.86775 9.43006 2.3989 9.8989C1.93006 10.3677 1.66667 11.0036 1.66667 11.6667C1.66667 12.3297 1.93006 12.9656 2.3989 13.4344C2.86775 13.9033 3.50363 14.1667 4.16667 14.1667Z" stroke="#FFADE4" stroke-width="1.5" stroke-linecap="round" stroke-linejoin="round"/>
<path d="M5.83334 13.75L6.66667 18.3333L4.16667 17.5L1.66667 18.3333L2.50001 13.75" stroke="#FFADE4" stroke-width="1.5" stroke-linecap="round" stroke-linejoin="round"/>
</svg>
