<svg xmlns="http://www.w3.org/2000/svg" xmlns:xlink="http://www.w3.org/1999/xlink" width="245" height="43" viewBox="0 0 245 43">
  <defs>
    <clipPath id="clip-LogoEn">
      <rect width="245" height="43"/>
    </clipPath>
  </defs>
  <g id="LogoEn" clip-path="url(#clip-LogoEn)">
    <rect width="245" height="43" fill="#fff"/>
    <g id="Group_4" data-name="Group 4" transform="translate(-67 -387)">
      <path id="Path_7" data-name="Path 7" d="M-98.956.528a13.548,13.548,0,0,1-5.566-1.144,13.615,13.615,0,0,1-4.466-3.168l1.98-2.244a11.8,11.8,0,0,0,3.7,2.706,10.25,10.25,0,0,0,4.4.99A7.2,7.2,0,0,0-94.27-3.7a4.448,4.448,0,0,0,1.694-3.652,4.425,4.425,0,0,0-.616-2.42,4.676,4.676,0,0,0-1.584-1.54A29.051,29.051,0,0,0-97.5-12.672l-4.18-1.848a12.725,12.725,0,0,1-4.2-2.816,6.324,6.324,0,0,1-1.65-4.576,6.823,6.823,0,0,1,1.144-3.872,7.676,7.676,0,0,1,3.19-2.684,10.515,10.515,0,0,1,4.554-.968,11.406,11.406,0,0,1,4.686.968,11.454,11.454,0,0,1,3.718,2.6L-92-23.8a9.255,9.255,0,0,0-6.644-2.772,6.359,6.359,0,0,0-4.092,1.232,3.964,3.964,0,0,0-1.54,3.256,3.665,3.665,0,0,0,.7,2.288,5.436,5.436,0,0,0,1.628,1.452q.924.528,2.508,1.232l4.18,1.848a11.9,11.9,0,0,1,4.422,2.948,6.9,6.9,0,0,1,1.562,4.752,7.486,7.486,0,0,1-1.188,4.136,8.053,8.053,0,0,1-3.388,2.9A11.667,11.667,0,0,1-98.956.528Zm21.736,0A9.344,9.344,0,0,1-82.1-.814,9.658,9.658,0,0,1-85.69-4.686a12.549,12.549,0,0,1-1.342-5.962,12.681,12.681,0,0,1,1.342-5.984A9.626,9.626,0,0,1-82.1-20.526a9.344,9.344,0,0,1,4.884-1.342,9.344,9.344,0,0,1,4.884,1.342,9.626,9.626,0,0,1,3.586,3.894,12.681,12.681,0,0,1,1.342,5.984A12.549,12.549,0,0,1-68.75-4.686,9.658,9.658,0,0,1-72.336-.814,9.344,9.344,0,0,1-77.22.528Zm0-2.684a5.634,5.634,0,0,0,3.366-1.056A6.97,6.97,0,0,0-71.544-6.2a11.119,11.119,0,0,0,.836-4.444,11.119,11.119,0,0,0-.836-4.444,7.13,7.13,0,0,0-2.31-3.014,5.556,5.556,0,0,0-3.366-1.078,5.556,5.556,0,0,0-3.366,1.078,6.976,6.976,0,0,0-2.288,3.014,11.383,11.383,0,0,0-.814,4.444,9.8,9.8,0,0,0,1.8,6.16A5.634,5.634,0,0,0-77.22-2.156ZM-65.34-21.34h2.64l.264,2.552h.132q3.74-3.08,6.908-3.08a7.341,7.341,0,0,1,6.27,2.926A13.02,13.02,0,0,1-46.948-11a13.861,13.861,0,0,1-1.276,6.138,9.758,9.758,0,0,1-3.388,4A8.18,8.18,0,0,1-56.188.528,10.066,10.066,0,0,1-62.26-1.98l.088,3.784V9.152H-65.34ZM-56.716-2.2a5.489,5.489,0,0,0,3.322-1.078,7.094,7.094,0,0,0,2.31-3.058,11.808,11.808,0,0,0,.836-4.62,10.859,10.859,0,0,0-1.43-6.006,4.961,4.961,0,0,0-4.466-2.178q-2.684,0-6.028,3.08V-4.532a10.254,10.254,0,0,0,2.86,1.782A7.184,7.184,0,0,0-56.716-2.2Zm11.924-29.216h3.168V-22.7l-.088,4.488a16.337,16.337,0,0,1,3.432-2.706,7.375,7.375,0,0,1,3.7-.946,5.785,5.785,0,0,1,4.928,2.09q1.584,2.09,1.584,6.226V0h-3.212V-13.156a7.943,7.943,0,0,0-.99-4.488,3.675,3.675,0,0,0-3.234-1.408,5.652,5.652,0,0,0-2.948.814,17.309,17.309,0,0,0-3.168,2.618V0h-3.168Zm19.58,10.076h3.168V0h-3.168Zm1.628-4.576a2.144,2.144,0,0,1-1.584-.616,2.2,2.2,0,0,1-.616-1.628,2.071,2.071,0,0,1,.616-1.562,2.188,2.188,0,0,1,1.584-.594A2.188,2.188,0,0,1-22-29.722a2.071,2.071,0,0,1,.616,1.562A2.2,2.2,0,0,1-22-26.532,2.144,2.144,0,0,1-23.584-25.916ZM-13.464.528a6.454,6.454,0,0,1-4.488-1.584A5.671,5.671,0,0,1-19.712-5.5a5.889,5.889,0,0,1,3.168-5.346q3.168-1.87,10.12-2.618a7.473,7.473,0,0,0-1.034-4.114A3.886,3.886,0,0,0-11-19.184a11.656,11.656,0,0,0-6.468,2.332l-1.276-2.2a14.906,14.906,0,0,1,8.272-2.816,6.42,6.42,0,0,1,5.456,2.31A10.265,10.265,0,0,1-3.256-13.2V0H-5.9L-6.16-2.6h-.132Q-10.076.528-13.464.528Zm.836-2.6a6.751,6.751,0,0,0,3.014-.726A14.584,14.584,0,0,0-6.424-5.06v-6.248q-5.5.66-7.81,2.024a4.084,4.084,0,0,0-2.31,3.608,3.3,3.3,0,0,0,1.1,2.706A4.3,4.3,0,0,0-12.628-2.068Z" transform="translate(176 419)" fill="#444"/>
      <path id="Path_8" data-name="Path 8" d="M10.824.572A20.162,20.162,0,0,1,5.962,0,15.236,15.236,0,0,1,1.98-1.54l.528-5.9A18.06,18.06,0,0,0,6.666-5.522a13.544,13.544,0,0,0,4.026.682,6.079,6.079,0,0,0,3.432-.88,2.687,2.687,0,0,0,1.32-2.332,2.119,2.119,0,0,0-.88-1.826,13.284,13.284,0,0,0-2.772-1.386l-1.056-.44q-.22-.088-.484-.2t-.616-.242a29.733,29.733,0,0,1-3.96-1.914A8.128,8.128,0,0,1,3.1-16.588a7.52,7.52,0,0,1-1.078-4.224,8.24,8.24,0,0,1,2.86-6.644q2.86-2.42,7.964-2.42a21.648,21.648,0,0,1,7.92,1.584L19.8-22.484a15.7,15.7,0,0,0-3.5-1.452,13.048,13.048,0,0,0-3.542-.528,5.473,5.473,0,0,0-3.212.814A2.544,2.544,0,0,0,8.4-21.472,2.273,2.273,0,0,0,9.2-19.624a10.673,10.673,0,0,0,2.552,1.408l1.8.7a33.293,33.293,0,0,1,4.224,1.892,8.357,8.357,0,0,1,2.86,2.662,7.837,7.837,0,0,1,1.188,4.51A8.106,8.106,0,0,1,18.92-1.8Q16.016.572,10.824.572ZM31.944.66a6.46,6.46,0,0,1-5.588-2.992,14.111,14.111,0,0,1-2.068-8.14q0-6.248,3.168-9.526t9.108-3.278A34.829,34.829,0,0,1,44.4-22.22V0H38.5l.132-3.608h-.176A8.858,8.858,0,0,1,35.662-.44,6.552,6.552,0,0,1,31.944.66Zm1.32-5.412A3.712,3.712,0,0,0,35.948-6.2a15.749,15.749,0,0,0,2.464-3.872v-7.392a10.359,10.359,0,0,0-2.816-.4,4.648,4.648,0,0,0-3.982,1.8,8.851,8.851,0,0,0-1.342,5.324,10.027,10.027,0,0,0,.792,4.378A2.429,2.429,0,0,0,33.264-4.752ZM52.008-32.12h7.084v5.72H52.008Zm-3.432,26.8H52.8V-17.336H48.576V-22.66H59V-5.324h3.784V0H48.576ZM72.248.66A6.46,6.46,0,0,1,66.66-2.332a14.111,14.111,0,0,1-2.068-8.14q0-6.248,3.168-9.526t9.108-3.278A34.829,34.829,0,0,1,84.7-22.22V0H78.8l.132-3.608H78.76A8.858,8.858,0,0,1,75.966-.44,6.552,6.552,0,0,1,72.248.66Zm1.32-5.412A3.712,3.712,0,0,0,76.252-6.2a15.749,15.749,0,0,0,2.464-3.872v-7.392a10.359,10.359,0,0,0-2.816-.4,4.648,4.648,0,0,0-3.982,1.8,8.851,8.851,0,0,0-1.342,5.324,10.027,10.027,0,0,0,.792,4.378A2.429,2.429,0,0,0,73.568-4.752ZM96.756.66A7.073,7.073,0,0,1,90.75-2.266q-2.178-2.926-2.178-8.162,0-6.2,3.234-9.526t9.218-3.322q.748,0,2.244.088V-32.12h6.116V0h-6.028l.132-2.948h-.176a7.985,7.985,0,0,1-2.794,2.684A7.567,7.567,0,0,1,96.756.66Zm1.408-5.412a4.026,4.026,0,0,0,2.728-1.21,10.962,10.962,0,0,0,2.376-3.454v-8.052a11.176,11.176,0,0,0-2.86-.4,5.04,5.04,0,0,0-4.2,1.8,8.36,8.36,0,0,0-1.43,5.28,9.079,9.079,0,0,0,.9,4.422A2.757,2.757,0,0,0,98.164-4.752ZM120.868.66a6.46,6.46,0,0,1-5.588-2.992,14.111,14.111,0,0,1-2.068-8.14q0-6.248,3.168-9.526t9.108-3.278a34.829,34.829,0,0,1,7.832,1.056V0h-5.9l.132-3.608h-.176A8.858,8.858,0,0,1,124.586-.44,6.552,6.552,0,0,1,120.868.66Zm1.32-5.412A3.712,3.712,0,0,0,124.872-6.2a15.749,15.749,0,0,0,2.464-3.872v-7.392a10.359,10.359,0,0,0-2.816-.4,4.648,4.648,0,0,0-3.982,1.8,8.851,8.851,0,0,0-1.342,5.324,10.027,10.027,0,0,0,.792,4.378A2.429,2.429,0,0,0,122.188-4.752Z" transform="translate(174 419)" fill="#e91e63"/>
    </g>
  </g>
</svg>
