<svg xmlns="http://www.w3.org/2000/svg" xmlns:xlink="http://www.w3.org/1999/xlink" width="485" height="68" viewBox="0 0 485 68">
  <defs>
    <clipPath id="clip-Logo">
      <rect width="485" height="68"/>
    </clipPath>
  </defs>
  <g id="Logo" clip-path="url(#clip-Logo)">
    <rect width="485" height="68" fill="#fff"/>
    <g id="Group_3" data-name="Group 3" transform="translate(-195 -81)">
      <path id="Path_5" data-name="Path 5" d="M-48.15-4.755q0-6.985-3.009-10.047t-8.6-3.063H-84.9V-24.42h26.972q18.053,0,18.053,19.987V35.218H-48.15ZM-85.008,6.205l1.182-7.2h7.092V35.218h-8.274Zm57.7-18.053L-28.7-24.42h8.167l1.5,12.572V4.163l-.107,6.77L-27.3,12.652ZM-6.35,28.663H11.273q8.382,0,13.378-4.674t5-15.42V2.014q0-9.779-3.761-14.829T14.5-17.865H3.214L.42-5.938A25.948,25.948,0,0,0-.225-.565a7.82,7.82,0,0,0,1.988,5.7q1.988,2.042,6.609,2.9l-1.719,5.7Q-.87,12.975-4.255,9.482T-7.639-.242a33.4,33.4,0,0,1,.645-6.34L-2.911-24.42h18.8q10.423,0,16.172,6.877T37.922,2.229V8.247q0,13.969-6.985,20.47t-18.268,6.5H-6.35ZM49.1-11.848,47.7-24.42h8.167l1.5,12.572V35.218H49.1ZM117.01.725q1.075,33.634-42.553,35.568L67.9-17.865,67.15-24.42H96.486q9.456,0,14.775,5.856T116.9-2.606ZM81.764,28.663q12.787-1.182,20.2-7.414T108.736.51V-2.069q0-6.985-3.385-11.39a11.3,11.3,0,0,0-9.51-4.406H76.177Z" transform="translate(561.84 110.279)" fill="#444"/>
      <path id="Path_6" data-name="Path 6" d="M40.607-.668a7.293,7.293,0,0,0-1.771-5.2,6.341,6.341,0,0,0-4.857-1.886H2.552V-22.038H37.064q9.028,0,14.113,5.143T56.263-2.61V38.759L40.607,39.787ZM3.123,8.475Q13.637,7.56,19.008,7.446V38.759L3.123,39.787ZM90.89-7.753H63.234V-22.038h54.4l-1.6,14.285h-9.485V38.759L90.89,39.787Zm56.8,18.856a10.906,10.906,0,0,0-4.228,3.943A16.509,16.509,0,0,0,141.63,21.5q-.229,1.943-.514,7.028t-.4,7.714l-.114,3.2q-5.943.343-12.114.343h-4q.114-9.828.686-16.8a29.825,29.825,0,0,1,3.257-12.171,20.371,20.371,0,0,1,8.285-7.942,189.784,189.784,0,0,1-12.571-19.656,147.488,147.488,0,0,1,14.513-7.771q9.828,16.342,16.913,26.17A11.71,11.71,0,0,0,160.886-.9,8.182,8.182,0,0,0,163-5.81q.571-3.657,1.486-16.456,5.143-.343,10.057-.343l6.514.114L180.028-8.781q-.571,7.657-4,12.114T165.743,10.3L181.17,34.645a119.454,119.454,0,0,1-14.742,6.742ZM197.855-7.753H186.085V-22.038H213.74V16.246l-15.885,1.029Zm28.913,32.341h8l20,1.257-.114-1.143L242.538,11.675a217.677,217.677,0,0,1-18.4-28.57A80.369,80.369,0,0,1,239-23.752q6.285,11.542,15.542,25.37a7.308,7.308,0,0,0,3.2-2.343,8.412,8.412,0,0,0,1.371-3.714q.457-2.4.914-7.542t.686-9.828q6.971-.457,15.656-.457-.114,4.228-.914,13.828a26.476,26.476,0,0,1-3.714,11.656q-2.914,4.457-10.457,7.2l11.885,15.542V39.216h-46.4Z" transform="translate(193.448 106.552)" fill="#e91e63"/>
    </g>
  </g>
</svg>
