<svg xmlns="http://www.w3.org/2000/svg" xmlns:xlink="http://www.w3.org/1999/xlink" width="241" height="43" viewBox="0 0 241 43">
  <defs>
    <clipPath id="clip-Artboard_1">
      <rect width="241" height="43"/>
    </clipPath>
  </defs>
  <g id="Artboard_1" data-name="Artboard – 1" clip-path="url(#clip-Artboard_1)">
    <path id="Path_8" data-name="Path 8" d="M10.824.572A20.162,20.162,0,0,1,5.962,0,15.236,15.236,0,0,1,1.98-1.54l.528-5.9A18.06,18.06,0,0,0,6.666-5.522a13.544,13.544,0,0,0,4.026.682,6.079,6.079,0,0,0,3.432-.88,2.687,2.687,0,0,0,1.32-2.332,2.119,2.119,0,0,0-.88-1.826,13.284,13.284,0,0,0-2.772-1.386l-1.056-.44q-.22-.088-.484-.2t-.616-.242a29.733,29.733,0,0,1-3.96-1.914A8.128,8.128,0,0,1,3.1-16.588a7.52,7.52,0,0,1-1.078-4.224,8.24,8.24,0,0,1,2.86-6.644q2.86-2.42,7.964-2.42a21.648,21.648,0,0,1,7.92,1.584L19.8-22.484a15.7,15.7,0,0,0-3.5-1.452,13.048,13.048,0,0,0-3.542-.528,5.473,5.473,0,0,0-3.212.814A2.544,2.544,0,0,0,8.4-21.472a2.273,2.273,0,0,0,.8,1.848,10.673,10.673,0,0,0,2.552,1.408l1.8.7a33.293,33.293,0,0,1,4.224,1.892,8.357,8.357,0,0,1,2.86,2.662,7.837,7.837,0,0,1,1.188,4.51A8.106,8.106,0,0,1,18.92-1.8Q16.016.572,10.824.572ZM31.944.66a6.46,6.46,0,0,1-5.588-2.992,14.111,14.111,0,0,1-2.068-8.14q0-6.248,3.168-9.526t9.108-3.278A34.829,34.829,0,0,1,44.4-22.22V0H38.5l.132-3.608h-.176A8.858,8.858,0,0,1,35.662-.44,6.552,6.552,0,0,1,31.944.66Zm1.32-5.412A3.712,3.712,0,0,0,35.948-6.2a15.749,15.749,0,0,0,2.464-3.872v-7.392a10.359,10.359,0,0,0-2.816-.4,4.648,4.648,0,0,0-3.982,1.8,8.851,8.851,0,0,0-1.342,5.324,10.027,10.027,0,0,0,.792,4.378,2.429,2.429,0,0,0,2.2,1.61ZM52.008-32.12h7.084v5.72H52.008ZM48.576-5.32H52.8V-17.336H48.576V-22.66H59V-5.324h3.784V0H48.576ZM72.248.66A6.46,6.46,0,0,1,66.66-2.332a14.111,14.111,0,0,1-2.068-8.14q0-6.248,3.168-9.526t9.108-3.278A34.829,34.829,0,0,1,84.7-22.22V0H78.8l.132-3.608H78.76A8.858,8.858,0,0,1,75.966-.44,6.552,6.552,0,0,1,72.248.66Zm1.32-5.412A3.712,3.712,0,0,0,76.252-6.2a15.749,15.749,0,0,0,2.464-3.872v-7.392a10.359,10.359,0,0,0-2.816-.4,4.648,4.648,0,0,0-3.982,1.8,8.851,8.851,0,0,0-1.342,5.324,10.027,10.027,0,0,0,.792,4.378,2.429,2.429,0,0,0,2.2,1.61ZM96.756.66A7.073,7.073,0,0,1,90.75-2.266q-2.178-2.926-2.178-8.162,0-6.2,3.234-9.526t9.218-3.322q.748,0,2.244.088V-32.12h6.116V0h-6.028l.132-2.948h-.176a7.985,7.985,0,0,1-2.794,2.684A7.567,7.567,0,0,1,96.756.66Zm1.408-5.412a4.026,4.026,0,0,0,2.728-1.21,10.962,10.962,0,0,0,2.376-3.454v-8.052a11.176,11.176,0,0,0-2.86-.4,5.04,5.04,0,0,0-4.2,1.8,8.36,8.36,0,0,0-1.43,5.28,9.079,9.079,0,0,0,.9,4.422,2.757,2.757,0,0,0,2.486,1.614ZM120.868.66a6.46,6.46,0,0,1-5.588-2.992,14.111,14.111,0,0,1-2.068-8.14q0-6.248,3.168-9.526t9.108-3.278a34.829,34.829,0,0,1,7.832,1.056V0h-5.9l.132-3.608h-.176a8.858,8.858,0,0,1-2.79,3.168,6.552,6.552,0,0,1-3.718,1.1Zm1.32-5.412A3.712,3.712,0,0,0,124.872-6.2a15.749,15.749,0,0,0,2.464-3.872v-7.392a10.359,10.359,0,0,0-2.816-.4,4.648,4.648,0,0,0-3.982,1.8A8.851,8.851,0,0,0,119.2-10.74a10.027,10.027,0,0,0,.792,4.378,2.429,2.429,0,0,0,2.2,1.61Z" transform="translate(107 32)" fill="#9c27b0"/>
    <path id="Path_1" data-name="Path 1" d="M11.924.528A13.548,13.548,0,0,1,6.358-.616,13.615,13.615,0,0,1,1.892-3.784l1.98-2.244a11.8,11.8,0,0,0,3.7,2.706,10.25,10.25,0,0,0,4.4.99A7.2,7.2,0,0,0,16.61-3.7,4.448,4.448,0,0,0,18.3-7.348a4.425,4.425,0,0,0-.616-2.42,4.676,4.676,0,0,0-1.584-1.54,29.05,29.05,0,0,0-2.728-1.364L9.2-14.52a12.725,12.725,0,0,1-4.2-2.816,6.324,6.324,0,0,1-1.65-4.576,6.823,6.823,0,0,1,1.144-3.872,7.676,7.676,0,0,1,3.19-2.684,10.515,10.515,0,0,1,4.554-.968,11.406,11.406,0,0,1,4.686.968,11.454,11.454,0,0,1,3.718,2.6L18.876-23.8a9.255,9.255,0,0,0-6.644-2.772A6.359,6.359,0,0,0,8.14-25.344,3.964,3.964,0,0,0,6.6-22.088,3.665,3.665,0,0,0,7.3-19.8a5.436,5.436,0,0,0,1.628,1.452q.924.528,2.508,1.232l4.18,1.848a11.9,11.9,0,0,1,4.422,2.948A6.9,6.9,0,0,1,21.6-7.568a7.486,7.486,0,0,1-1.188,4.136,8.053,8.053,0,0,1-3.388,2.9A11.667,11.667,0,0,1,11.924.528Zm21.416,0A9.344,9.344,0,0,1,28.456-.814,9.658,9.658,0,0,1,24.87-4.686a12.549,12.549,0,0,1-1.342-5.962,12.681,12.681,0,0,1,1.342-5.984,9.626,9.626,0,0,1,3.586-3.894,9.344,9.344,0,0,1,4.884-1.342,9.344,9.344,0,0,1,4.884,1.342,9.626,9.626,0,0,1,3.586,3.894,12.681,12.681,0,0,1,1.342,5.984A12.549,12.549,0,0,1,41.81-4.686,9.658,9.658,0,0,1,38.224-.814,9.344,9.344,0,0,1,33.34.528Zm0-2.684a5.634,5.634,0,0,0,3.366-1.056A6.97,6.97,0,0,0,39.016-6.2a11.119,11.119,0,0,0,.836-4.444,11.119,11.119,0,0,0-.836-4.444,7.13,7.13,0,0,0-2.31-3.014,5.556,5.556,0,0,0-3.366-1.078,5.556,5.556,0,0,0-3.366,1.078,6.976,6.976,0,0,0-2.288,3.014,11.382,11.382,0,0,0-.814,4.444,9.8,9.8,0,0,0,1.8,6.16A5.634,5.634,0,0,0,33.34-2.156ZM45.32-21.34h2.64l.264,2.552h.132q3.74-3.08,6.908-3.08a7.341,7.341,0,0,1,6.27,2.926A13.02,13.02,0,0,1,63.712-11a13.861,13.861,0,0,1-1.276,6.138,9.758,9.758,0,0,1-3.388,4A8.18,8.18,0,0,1,54.472.528,10.066,10.066,0,0,1,48.4-1.98L48.488,1.8V9.152H45.32ZM53.944-2.2a5.489,5.489,0,0,0,3.322-1.078,7.094,7.094,0,0,0,2.31-3.058,11.808,11.808,0,0,0,.836-4.62,10.859,10.859,0,0,0-1.43-6.006,4.961,4.961,0,0,0-4.466-2.178q-2.684,0-6.028,3.08V-4.532a10.254,10.254,0,0,0,2.86,1.782A7.184,7.184,0,0,0,53.944-2.2Zm12.8-29.216h3.168V-22.7l-.088,4.488a16.337,16.337,0,0,1,3.432-2.706,7.375,7.375,0,0,1,3.7-.946,5.785,5.785,0,0,1,4.928,2.09q1.584,2.09,1.584,6.226V0H80.256V-13.156a7.943,7.943,0,0,0-.99-4.488,3.675,3.675,0,0,0-3.234-1.408,5.652,5.652,0,0,0-2.948.814,17.309,17.309,0,0,0-3.168,2.618V0H66.748Zm18.9,10.076h3.168V0H85.648Zm1.628-4.576a2.144,2.144,0,0,1-1.584-.616,2.2,2.2,0,0,1-.616-1.628,2.071,2.071,0,0,1,.616-1.562,2.188,2.188,0,0,1,1.584-.594,2.188,2.188,0,0,1,1.584.594,2.071,2.071,0,0,1,.616,1.562,2.2,2.2,0,0,1-.616,1.628A2.144,2.144,0,0,1,87.276-25.916Zm21.44,14.036a12.022,12.022,0,0,1-.132,1.936H93.844a8.551,8.551,0,0,0,2.31,5.808,7.008,7.008,0,0,0,5.126,2.068,9.674,9.674,0,0,0,5.412-1.716l1.188,2.112a15.975,15.975,0,0,1-3.256,1.606,11.116,11.116,0,0,1-3.74.594A10.018,10.018,0,0,1,95.758-.814a9.479,9.479,0,0,1-3.652-3.894,12.582,12.582,0,0,1-1.342-5.94,12.484,12.484,0,0,1,1.342-5.9,10.064,10.064,0,0,1,3.542-3.938,8.606,8.606,0,0,1,4.664-1.386,7.613,7.613,0,0,1,6.182,2.662A11.092,11.092,0,0,1,108.716-11.88Zm-2.86-.4a8.108,8.108,0,0,0-1.452-5.192,4.906,4.906,0,0,0-4.048-1.8,5.882,5.882,0,0,0-4.224,1.8,8.172,8.172,0,0,0-2.2,5.192Z" transform="translate(-2 32)" fill="#444"/>
  </g>
</svg>
